<mxfile host="app.diagrams.net" modified="2023-05-26T01:02:30.136Z" agent="Mozilla/5.0 (Windows NT 10.0; Win64; x64) AppleWebKit/537.36 (KHTML, like Gecko) Chrome/113.0.0.0 Safari/537.36" etag="g9T7NcvtuftalXeMiLTN" version="21.3.2" type="device">
  <diagram name="페이지-1" id="l1r5B63ubMNFEdxXHYBp">
    <mxGraphModel dx="1434" dy="756" grid="1" gridSize="10" guides="1" tooltips="1" connect="1" arrows="1" fold="1" page="1" pageScale="1" pageWidth="4681" pageHeight="3300" math="0" shadow="0">
      <root>
        <mxCell id="0" />
        <mxCell id="1" parent="0" />
        <mxCell id="V_Erd9vkUjjiroPLw2Xc-14" style="rounded=0;orthogonalLoop=1;jettySize=auto;html=1;entryX=0.5;entryY=0;entryDx=0;entryDy=0;exitX=0.5;exitY=1;exitDx=0;exitDy=0;" edge="1" parent="1" source="V_Erd9vkUjjiroPLw2Xc-1" target="V_Erd9vkUjjiroPLw2Xc-2">
          <mxGeometry relative="1" as="geometry" />
        </mxCell>
        <mxCell id="V_Erd9vkUjjiroPLw2Xc-15" style="edgeStyle=none;shape=connector;rounded=0;orthogonalLoop=1;jettySize=auto;html=1;entryX=0.5;entryY=0;entryDx=0;entryDy=0;labelBackgroundColor=default;strokeColor=default;fontFamily=Helvetica;fontSize=11;fontColor=default;endArrow=classic;exitX=0.5;exitY=1;exitDx=0;exitDy=0;" edge="1" parent="1" source="V_Erd9vkUjjiroPLw2Xc-1" target="V_Erd9vkUjjiroPLw2Xc-3">
          <mxGeometry relative="1" as="geometry" />
        </mxCell>
        <mxCell id="V_Erd9vkUjjiroPLw2Xc-16" style="edgeStyle=none;shape=connector;rounded=0;orthogonalLoop=1;jettySize=auto;html=1;entryX=0.5;entryY=0;entryDx=0;entryDy=0;labelBackgroundColor=default;strokeColor=default;fontFamily=Helvetica;fontSize=11;fontColor=default;endArrow=classic;" edge="1" parent="1" source="V_Erd9vkUjjiroPLw2Xc-1" target="V_Erd9vkUjjiroPLw2Xc-4">
          <mxGeometry relative="1" as="geometry" />
        </mxCell>
        <mxCell id="V_Erd9vkUjjiroPLw2Xc-17" style="edgeStyle=none;shape=connector;rounded=0;orthogonalLoop=1;jettySize=auto;html=1;entryX=0.5;entryY=0;entryDx=0;entryDy=0;labelBackgroundColor=default;strokeColor=default;fontFamily=Helvetica;fontSize=11;fontColor=default;endArrow=classic;exitX=0.5;exitY=1;exitDx=0;exitDy=0;" edge="1" parent="1" source="V_Erd9vkUjjiroPLw2Xc-1" target="V_Erd9vkUjjiroPLw2Xc-5">
          <mxGeometry relative="1" as="geometry" />
        </mxCell>
        <mxCell id="V_Erd9vkUjjiroPLw2Xc-18" style="edgeStyle=none;shape=connector;rounded=0;orthogonalLoop=1;jettySize=auto;html=1;entryX=0.5;entryY=0;entryDx=0;entryDy=0;labelBackgroundColor=default;strokeColor=default;fontFamily=Helvetica;fontSize=11;fontColor=default;endArrow=classic;exitX=0.5;exitY=1;exitDx=0;exitDy=0;" edge="1" parent="1" source="V_Erd9vkUjjiroPLw2Xc-1" target="V_Erd9vkUjjiroPLw2Xc-6">
          <mxGeometry relative="1" as="geometry" />
        </mxCell>
        <mxCell id="V_Erd9vkUjjiroPLw2Xc-1" value="&lt;font style=&quot;font-size: 20px;&quot;&gt;학생정보&lt;/font&gt;" style="rounded=1;arcSize=10;whiteSpace=wrap;html=1;align=center;" vertex="1" parent="1">
          <mxGeometry x="650" y="230" width="200" height="90" as="geometry" />
        </mxCell>
        <mxCell id="V_Erd9vkUjjiroPLw2Xc-2" value="&lt;font style=&quot;font-size: 20px;&quot;&gt;학번&lt;/font&gt;" style="ellipse;whiteSpace=wrap;html=1;align=center;fontStyle=4;" vertex="1" parent="1">
          <mxGeometry x="280" y="440" width="150" height="70" as="geometry" />
        </mxCell>
        <mxCell id="V_Erd9vkUjjiroPLw2Xc-3" value="&lt;font style=&quot;font-size: 20px;&quot;&gt;이름&lt;/font&gt;" style="ellipse;whiteSpace=wrap;html=1;align=center;" vertex="1" parent="1">
          <mxGeometry x="470" y="440" width="160" height="70" as="geometry" />
        </mxCell>
        <mxCell id="V_Erd9vkUjjiroPLw2Xc-4" value="&lt;font style=&quot;font-size: 20px;&quot;&gt;학과&lt;/font&gt;" style="ellipse;whiteSpace=wrap;html=1;align=center;" vertex="1" parent="1">
          <mxGeometry x="670" y="440" width="160" height="70" as="geometry" />
        </mxCell>
        <mxCell id="V_Erd9vkUjjiroPLw2Xc-5" value="&lt;font style=&quot;font-size: 20px;&quot;&gt;학년&lt;/font&gt;" style="ellipse;whiteSpace=wrap;html=1;align=center;" vertex="1" parent="1">
          <mxGeometry x="870" y="440" width="160" height="70" as="geometry" />
        </mxCell>
        <mxCell id="V_Erd9vkUjjiroPLw2Xc-6" value="&lt;font style=&quot;font-size: 20px;&quot;&gt;전화번호&lt;/font&gt;" style="ellipse;whiteSpace=wrap;html=1;align=center;" vertex="1" parent="1">
          <mxGeometry x="1070" y="440" width="160" height="70" as="geometry" />
        </mxCell>
      </root>
    </mxGraphModel>
  </diagram>
</mxfile>
